<svg xmlns="http://www.w3.org/2000/svg" width="1600" height="900" viewBox="0 0 1600 900">
<rect width="1600" height="900" fill="#092b42"/><g font-family="Arial,sans-serif" fill="#eef7fb"><text x="95" y="120" font-size="27" fill="#f6bc55">OILLINKO · SERVICE PROCUREMENT</text><text x="95" y="208" font-size="62" font-weight="bold">A joint needs a traceable work scope</text><text x="95" y="270" font-size="29" fill="#bdd2df">From an identified connection to an approved completion record</text></g>
<path d="M220 490H1380" stroke="#f6bc55" stroke-width="7"/>
<g font-family="Arial,sans-serif"><g transform="translate(95,360)"><rect width="325" height="300" rx="20" fill="#123e57" stroke="#3e6479"/><circle cx="50" cy="52" r="27" fill="#f6bc55"/><text x="42" y="61" font-size="26" fill="#092b42">1</text><text x="30" y="119" fill="white" font-size="32" font-weight="bold">Joint register</text><text x="30" y="174" fill="#c8dce7" font-size="25">Drawing and revision</text><text x="30" y="218" fill="#c8dce7" font-size="25">Gasket and fasteners</text><text x="30" y="262" fill="#c8dce7" font-size="25">Location and access</text></g>
<g transform="translate(455,360)"><rect width="325" height="300" rx="20" fill="#123e57" stroke="#3e6479"/><circle cx="50" cy="52" r="27" fill="#f6bc55"/><text x="42" y="61" font-size="26" fill="#092b42">2</text><text x="30" y="119" fill="white" font-size="32" font-weight="bold">Approved basis</text><text x="30" y="174" fill="#c8dce7" font-size="25">Method and procedure</text><text x="30" y="218" fill="#c8dce7" font-size="25">Engineering review</text><text x="30" y="262" fill="#c8dce7" font-size="25">Responsibility limits</text></g>
<g transform="translate(815,360)"><rect width="325" height="300" rx="20" fill="#123e57" stroke="#3e6479"/><circle cx="50" cy="52" r="27" fill="#f6bc55"/><text x="42" y="61" font-size="26" fill="#092b42">3</text><text x="30" y="119" fill="white" font-size="32" font-weight="bold">Execution scope</text><text x="30" y="174" fill="#c8dce7" font-size="25">Crew and tooling</text><text x="30" y="218" fill="#c8dce7" font-size="25">Readiness and permits</text><text x="30" y="262" fill="#c8dce7" font-size="25">Changes and findings</text></g>
<g transform="translate(1175,360)"><rect width="325" height="300" rx="20" fill="#123e57" stroke="#3e6479"/><circle cx="50" cy="52" r="27" fill="#f6bc55"/><text x="42" y="61" font-size="26" fill="#092b42">4</text><text x="30" y="119" fill="white" font-size="32" font-weight="bold">Handover</text><text x="30" y="174" fill="#c8dce7" font-size="25">Joint completion log</text><text x="30" y="218" fill="#c8dce7" font-size="25">Approved dispositions</text><text x="30" y="262" fill="#c8dce7" font-size="25">Separate test records</text></g></g>
<text x="95" y="778" fill="#f6bc55" font-size="30" font-family="Arial,sans-serif">Assembly completion, test acceptance and system release are separate decisions.</text>
</svg>
