<svg xmlns="http://www.w3.org/2000/svg" width="1200" height="675" viewBox="0 0 1200 675" role="img"><title>Expansion joint enquiry diagram linking movement data, the offered assembly and piping review.</title><rect width="1200" height="675" fill="#f1f5f9"/><rect x="62" y="65" width="74" height="7" rx="3" fill="#d97706"/><g font-family="Arial, sans-serif"><text x="62" y="118" font-size="24" font-weight="700" fill="#475569">OILLINKO / BUYER GUIDES</text><text x="62" y="184" font-size="34" font-weight="700" fill="#0f172a">Connect movement data to the assembly</text><rect x="62" y="238" width="328" height="274" rx="18" fill="#fff" stroke="#cbd5e1"/><text x="86" y="291" font-size="24" font-weight="700" fill="#b45309">MOVEMENTS</text><text x="86" y="355" font-size="22" fill="#334155">Directions and datum</text><text x="86" y="402" font-size="22" fill="#334155">Combined conditions</text><text x="86" y="449" font-size="22" fill="#334155">Approved cycling basis</text><rect x="437" y="238" width="328" height="274" rx="18" fill="#fff" stroke="#cbd5e1"/><text x="461" y="291" font-size="24" font-weight="700" fill="#b45309">ASSEMBLY</text><text x="461" y="355" font-size="22" fill="#334155">Bellows and end fittings</text><text x="461" y="402" font-size="22" fill="#334155">Restraints and accessories</text><text x="461" y="449" font-size="22" fill="#334155">Offered drawing revision</text><rect x="812" y="238" width="328" height="274" rx="18" fill="#fff" stroke="#cbd5e1"/><text x="836" y="291" font-size="24" font-weight="700" fill="#b45309">PIPING REVIEW</text><text x="836" y="355" font-size="22" fill="#334155">Loads and responsibilities</text><text x="836" y="402" font-size="22" fill="#334155">Connections and space</text><text x="836" y="449" font-size="22" fill="#334155">Declared alternatives</text><path d="M408 375h18m-8-9 9 9-9 9M783 375h18m-8-9 9 9-9 9" stroke="#d97706" stroke-width="3" fill="none"/><text x="62" y="586" font-size="23" fill="#334155">Review one defined requirement against one traceable offer.</text></g></svg>