<svg xmlns="http://www.w3.org/2000/svg" viewBox="0 0 1200 630" role="img" aria-labelledby="title desc">
<title id="title">Centrifugal pump spare-parts identification chain</title>
<desc id="desc">A conceptual path from the installed pump nameplate to an assembly drawing, identified spare components and acceptance documents.</desc>
<rect width="1200" height="630" fill="#071a27"/>
<path d="M0 516H1200" stroke="#1b4b5a" stroke-width="2"/>
<text x="66" y="91" fill="#e9f5f1" font-family="Arial,sans-serif" font-size="38" font-weight="700">From pump identity to the right spare</text>
<text x="67" y="137" fill="#a9c9cb" font-family="Arial,sans-serif" font-size="21">Four records to align before comparing replacement quotations</text>
<g font-family="Arial,sans-serif" text-anchor="middle">
<g><rect x="64" y="207" width="238" height="233" rx="22" fill="#123247" stroke="#2f7b82" stroke-width="3"/><rect x="108" y="246" width="150" height="74" rx="8" fill="#173f52" stroke="#74c0b4" stroke-width="2"/><path d="M126 269h114M126 288h79" stroke="#a9d9cf" stroke-width="5"/><text x="183" y="363" fill="#f0f8f5" font-size="25" font-weight="700">Pump identity</text><text x="183" y="395" fill="#b4d1d1" font-size="18">Type · serial · tag</text></g>
<g><rect x="342" y="207" width="238" height="233" rx="22" fill="#123247" stroke="#2f7b82" stroke-width="3"/><rect x="401" y="244" width="119" height="86" rx="4" fill="none" stroke="#74c0b4" stroke-width="3"/><circle cx="460" cy="286" r="29" fill="none" stroke="#74c0b4" stroke-width="3"/><path d="M401 265h119M427 244v86" stroke="#74c0b4" stroke-width="2"/><text x="461" y="363" fill="#f0f8f5" font-size="25" font-weight="700">Assembly drawing</text><text x="461" y="395" fill="#b4d1d1" font-size="18">Number · revision</text></g>
<g><rect x="620" y="207" width="238" height="233" rx="22" fill="#123247" stroke="#2f7b82" stroke-width="3"/><circle cx="739" cy="284" r="47" fill="none" stroke="#74c0b4" stroke-width="11"/><circle cx="739" cy="284" r="14" fill="#74c0b4"/><path d="M739 237v31M786 284h-31M739 331v-31M692 284h31" stroke="#74c0b4" stroke-width="5"/><text x="739" y="363" fill="#f0f8f5" font-size="25" font-weight="700">Component</text><text x="739" y="395" fill="#b4d1d1" font-size="18">Item · material · scope</text></g>
<g><rect x="898" y="207" width="238" height="233" rx="22" fill="#123247" stroke="#2f7b82" stroke-width="3"/><path d="M1007 241h53l26 26v70h-79z" fill="none" stroke="#74c0b4" stroke-width="3"/><path d="M1060 241v26h26M1023 290h47M1023 308h47" stroke="#74c0b4" stroke-width="4"/><text x="1017" y="363" fill="#f0f8f5" font-size="25" font-weight="700">Evidence</text><text x="1017" y="395" fill="#b4d1d1" font-size="18">Drawing · test records</text></g>
</g>
<path d="M307 322h29m-11-10 11 10-11 10M585 322h29m-11-10 11 10-11 10M863 322h29m-11-10 11 10-11 10" fill="none" stroke="#f5bd63" stroke-width="5" stroke-linecap="round" stroke-linejoin="round"/>
<text x="66" y="563" fill="#9cbcbf" font-family="Arial,sans-serif" font-size="19">Conceptual identification aid · verify actual fit against approved documents</text>
<text x="1133" y="563" fill="#f5bd63" font-family="Arial,sans-serif" text-anchor="end" font-size="22" font-weight="700">OILLINKO</text>
</svg>
